HIERARCHY
ROOT root
{
	OFFSET 0.000000 0.000000 0.000000
	CHANNELS 6 Xposition Yposition Zposition Zrotation Yrotation Xrotation
	JOINT lhip
	{
		OFFSET 0.058581 -0.082280 -0.017664
		CHANNELS 3 Zrotation Yrotation Xrotation
		JOINT lknee
		{
			OFFSET 0.043451 -0.386469 0.008037
			CHANNELS 3 Zrotation Yrotation Xrotation
			JOINT lankle
			{
				OFFSET -0.014790 -0.426874 -0.037428
				CHANNELS 3 Zrotation Yrotation Xrotation
				JOINT ltoe
				{
					OFFSET 0.041054 -0.060286 0.122042
					CHANNELS 3 Zrotation Yrotation Xrotation
					End Site
					{
						OFFSET 0.000000 0.000000 0.000000
					}
				}
			}
		}
	}
	JOINT rhip
	{
		OFFSET -0.060310 -0.090513 -0.013543
		CHANNELS 3 Zrotation Yrotation Xrotation
		JOINT rknee
		{
			OFFSET -0.043257 -0.383688 -0.004843
			CHANNELS 3 Zrotation Yrotation Xrotation
			JOINT rankle
			{
				OFFSET 0.019056 -0.420046 -0.034562
				CHANNELS 3 Zrotation Yrotation Xrotation
				JOINT rtoe
				{
					OFFSET -0.034840 -0.062106 0.130323
					CHANNELS 3 Zrotation Yrotation Xrotation
					End Site
					{
						OFFSET 0.000000 0.000000 0.000000
					}
				}
			}
		}
	}
	JOINT lowerback
	{
		OFFSET 0.004439 0.124404 -0.038385
		CHANNELS 3 Zrotation Yrotation Xrotation
		JOINT upperback
		{
			OFFSET 0.004488 0.137956 0.026820
			CHANNELS 3 Zrotation Yrotation Xrotation
			JOINT chest
			{
				OFFSET -0.002265 0.056032 0.002855
				CHANNELS 3 Zrotation Yrotation Xrotation
				JOINT lowerneck
				{
					OFFSET -0.013390 0.211636 -0.033468
					CHANNELS 3 Zrotation Yrotation Xrotation
					JOINT upperneck
					{
						OFFSET 0.010113 0.088937 0.050410
						CHANNELS 3 Zrotation Yrotation Xrotation
						End Site
						{
							OFFSET 0.000000 0.000000 0.000000
						}
					}
				}
				JOINT lclavicle
				{
					OFFSET 0.071702 0.114000 -0.018898
					CHANNELS 3 Zrotation Yrotation Xrotation
					JOINT lshoulder
					{
						OFFSET 0.122921 0.045205 -0.019046
						CHANNELS 3 Zrotation Yrotation Xrotation
						JOINT lelbow
						{
							OFFSET 0.255332 -0.015649 -0.022946
							CHANNELS 3 Zrotation Yrotation Xrotation
							JOINT lwrist
							{
								OFFSET 0.265709 0.012698 -0.007375
								CHANNELS 3 Zrotation Yrotation Xrotation
								End Site
								{
									OFFSET 0.000000 0.000000 0.000000
								}
							}
						}
					}
				}
				JOINT rclavicle
				{
					OFFSET -0.082954 0.112472 -0.023707
					CHANNELS 3 Zrotation Yrotation Xrotation
					JOINT rshoulder
					{
						OFFSET -0.113228 0.046853 -0.008472
						CHANNELS 3 Zrotation Yrotation Xrotation
						JOINT relbow
						{
							OFFSET -0.260127 -0.014369 -0.031269
							CHANNELS 3 Zrotation Yrotation Xrotation
							JOINT rwrist
							{
								OFFSET -0.269108 0.006794 -0.006027
								CHANNELS 3 Zrotation Yrotation Xrotation
								End Site
								{
									OFFSET 0.000000 0.000000 0.000000
								}
							}
						}
					}
				}
			}
		}
	}
}
MOTION
Frames: 7
Frame Time: 0.033333
2.362631 0.670909 0.984793 -100.539500 -0.608545 84.161463 -1.722568 4.238870 2.368909 -2.006176 -6.607672 6.607548 2.624558 12.377170 -11.872921 0.000000 -0.000000 0.000000 -0.418030 1.842767 -9.946235 -0.388209 3.782729 26.068821 1.953701 -6.607211 -18.010107 0.000000 -0.000000 0.000000 -4.288816 -3.120024 8.578510 -4.251309 -2.877051 3.855315 -3.560247 -1.646405 3.743733 -0.262058 8.572936 10.513308 -3.808274 10.745803 -8.513115 -22.917631 0.483756 0.749311 -51.362265 -7.289135 6.207851 7.204760 -19.074415 7.881262 19.965639 -4.281690 -0.223469 17.051772 0.493369 2.895228 62.888732 3.446864 19.591811 3.417623 34.581454 20.807949 -19.710452 6.319249 -4.530987 
2.360745 0.670588 0.983596 -101.817581 -0.493456 83.443619 -1.623907 3.463273 3.024195 -2.095144 -5.196000 7.485592 2.397949 12.685907 -12.815829 0.000000 -0.000000 0.000000 -0.220131 1.960480 -9.810832 -0.407491 3.842723 27.286986 1.943743 -5.907846 -17.851353 0.000000 -0.000000 0.000000 -4.142420 -2.729030 8.620780 -4.099596 -3.109475 4.407981 -3.652153 -1.812867 3.544194 -0.658210 8.658603 11.091408 -4.370934 11.300190 -8.081401 -23.249574 0.056169 1.099752 -51.208828 -7.313155 5.672858 8.369358 -17.726759 8.323545 18.670122 -7.277871 1.329623 16.988735 -0.207286 2.908539 62.764382 3.364651 18.464191 1.207807 35.564902 23.337683 -11.322300 7.971019 0.612872 
2.359706 0.669179 0.982382 -102.584593 -0.490407 83.344016 -1.637845 3.032930 2.880720 -2.460979 -4.403602 8.271536 2.994452 13.259333 -13.192075 0.000000 -0.000000 0.000000 -0.350489 2.042552 -10.448434 -0.034780 4.005976 28.495138 1.605348 -5.902216 -17.507266 0.000000 -0.000000 0.000000 -3.802064 -3.081807 8.145724 -4.214119 -3.272094 4.700181 -3.875332 -2.092663 3.550786 -1.092818 8.717770 12.001560 -5.184957 11.964704 -8.749920 -23.065655 0.448997 1.226895 -51.406394 -7.457701 5.152246 8.968601 -19.055729 6.648955 12.803442 -3.890763 -1.425101 16.318857 -0.697435 2.674278 63.229759 2.855231 18.961633 0.196528 36.464094 23.599310 -8.349173 6.076728 1.174394 
2.357745 0.668029 0.981629 -103.539257 -0.580447 82.679610 -1.675879 3.606176 3.646401 -2.658445 -4.320597 8.676033 3.118863 13.666153 -13.732616 0.000000 -0.000000 0.000000 -0.478276 2.050305 -10.614992 0.331276 4.012245 30.049791 1.639519 -6.155098 -17.379132 0.000000 -0.000000 0.000000 -3.784006 -3.636180 8.338675 -4.264476 -3.494106 4.885932 -3.880949 -2.504846 3.510494 -1.524018 9.190082 12.361828 -5.927775 13.267249 -9.144324 -23.654550 0.404389 1.566087 -51.178648 -7.065913 4.560909 9.742717 -18.979845 4.940648 15.384541 -3.284502 -1.606078 16.575358 -0.820069 2.500951 62.533225 3.100909 18.886105 0.932425 36.648364 23.656107 -9.888614 6.786940 1.752972 
2.356946 0.667342 0.981129 -104.122016 -0.612401 82.199435 -1.617381 4.170960 4.142637 -2.791146 -4.298903 8.974574 3.139035 13.644082 -14.131158 0.000000 -0.000000 0.000000 -0.592546 1.810450 -10.524515 0.475302 3.759461 30.703500 1.552367 -6.027498 -17.233138 0.000000 -0.000000 0.000000 -3.576313 -4.091469 8.689640 -4.415101 -3.661657 4.686397 -3.951543 -2.692656 3.655277 -1.678371 9.338739 12.421624 -6.450676 13.989485 -9.327657 -24.019239 0.488210 1.566643 -50.995658 -7.172139 4.105060 9.795460 -18.596845 4.334828 18.672349 -4.775018 -1.198374 16.410684 -0.805203 2.328698 62.503708 3.232512 18.979779 1.423351 36.536421 23.750746 -12.676796 7.898479 1.526975 
2.356573 0.666451 0.980756 -104.826721 -0.590264 82.000628 -1.561013 4.500516 4.304459 -2.853171 -4.005699 9.285421 3.215736 13.683178 -14.387825 0.000000 -0.000000 0.000000 -0.617865 1.780126 -10.909657 0.596344 3.132946 31.577898 1.549443 -6.036006 -17.160281 0.000000 -0.000000 0.000000 -3.326242 -4.454289 8.747680 -4.342934 -3.930010 4.725430 -4.056981 -2.848801 3.699562 -1.666965 9.752028 11.947492 -6.685767 14.432843 -9.604987 -24.248495 0.562598 1.454218 -51.182651 -7.249718 3.738086 10.024999 -18.099650 3.805869 18.044126 -4.921292 -1.010764 16.572502 -1.093337 2.051795 62.208805 3.184952 18.903320 1.148582 37.165066 23.470155 -12.755911 8.526559 1.502490 
2.355708 0.666271 0.980233 -105.696294 -0.461120 81.764894 -1.404835 4.805832 4.527692 -2.786750 -3.653403 9.636918 3.167065 13.877315 -14.663447 0.000000 -0.000000 0.000000 -0.445862 1.891123 -10.788942 0.714172 2.966476 31.592995 1.357401 -5.970533 -16.916411 0.000000 -0.000000 0.000000 -3.022527 -4.763311 8.912076 -4.239208 -4.070875 4.638192 -3.990599 -3.060104 3.746657 -1.834367 9.906353 11.583539 -7.235890 15.093436 -9.794823 -24.412570 0.544780 1.709234 -51.519058 -6.908830 3.628416 10.058335 -17.970299 3.919685 17.478011 -4.789643 -1.228604 16.237153 -1.152625 1.972968 62.251170 3.329874 18.873569 1.222845 37.618041 23.384595 -12.950934 8.550356 1.169024 
